# xmcd
#
# Track frame offsets:
#	150
#	21217
#	32785
#	44702
#	57270
#	71005
#	81625
#	91582
#	108804
#	120579
#
# Disc length: 1794 seconds
#
# Revision: 0
# Processed by: cddbd v1.5.1PL2 Copyright (c) Steve Scherf et al.
# Submitted via: audiograbber 1.83.01
#
DISCID=8207000a
DTITLE=Various Artist - All American Country [CD2]
DYEAR=2006
DGENRE=Country
TTITLE0=Marty Robbins - El Paso
TTITLE1=Johnny Horton - The Battle Of New Orleans
TTITLE2=Skeeter Davis - The End Of The World
TTITLE3=Bobby Bare - Detroit City
TTITLE4=Jimmy Dean - Big Bad John
TTITLE5=Floyd Cramer - San Antonio Rose
TTITLE6=Porter Wagoner and Dolly Parton - Making Plans
TTITLE7=Ray Price - For The Good Times
TTITLE8=Johnny Cash - I Walk The Line
TTITLE9=George Jones - The Grand Tour
EXTD=Compilation
EXTT0=
EXTT1=
EXTT2=
EXTT3=
EXTT4=
EXTT5=
EXTT6=
EXTT7=
EXTT8=
EXTT9=
PLAYORDER=
